<svg width="96" height="96" xmlns="http://www.w3.org/2000/svg" xmlns:xlink="http://www.w3.org/1999/xlink" xml:space="preserve" overflow="hidden"><g><path d="M48 80C30.4 80 16 65.6 16 48 16 30.4 30.4 16 48 16 65.6 16 80 30.4 80 48 80 65.6 65.6 80 48 80ZM48 10C27 10 10 27 10 48 10 69 27 86 48 86 69 86 86 69 86 48 86 27 69 10 48 10Z"/><path d="M50 28 46 28 46 48C46 48.6 46.2 49.1 46.6 49.4L60.7 63.5 63.5 60.7 50 47.2 50 28Z"/><path d="M50 22C50 23.1046 49.1046 24 48 24 46.8954 24 46 23.1046 46 22 46 20.8954 46.8954 20 48 20 49.1046 20 50 20.8954 50 22Z"/><path d="M50 74C50 75.1046 49.1046 76 48 76 46.8954 76 46 75.1046 46 74 46 72.8954 46.8954 72 48 72 49.1046 72 50 72.8954 50 74Z"/><path d="M24 48C24 49.1046 23.1046 50 22 50 20.8954 50 20 49.1046 20 48 20 46.8954 20.8954 46 22 46 23.1046 46 24 46.8954 24 48Z"/><path d="M76 48C76 49.1046 75.1046 50 74 50 72.8954 50 72 49.1046 72 48 72 46.8954 72.8954 46 74 46 75.1046 46 76 46.8954 76 48Z"/></g></svg>